<svg width="132" height="35" viewBox="0 0 132 35" fill="none" xmlns="http://www.w3.org/2000/svg">
<path d="M14.5781 25.7617C14 26.5898 13.1914 27.2109 12.1523 27.625C11.1211 28.0312 9.91797 28.2344 8.54297 28.2344C7.15234 28.2344 5.91797 27.9102 4.83984 27.2617C3.76172 26.6055 2.92578 25.6758 2.33203 24.4727C1.74609 23.2695 1.44531 21.875 1.42969 20.2891V18.8008C1.42969 16.2305 2.02734 14.2383 3.22266 12.8242C4.42578 11.4102 6.11328 10.7031 8.28516 10.7031C10.0664 10.7031 11.5 11.1602 12.5859 12.0742C13.6719 12.9805 14.3359 14.2695 14.5781 15.9414H12.3281C11.9062 13.6836 10.5625 12.5547 8.29688 12.5547C6.78906 12.5547 5.64453 13.0859 4.86328 14.1484C4.08984 15.2031 3.69922 16.7344 3.69141 18.7422V20.1367C3.69141 22.0508 4.12891 23.5742 5.00391 24.707C5.87891 25.832 7.0625 26.3945 8.55469 26.3945C9.39844 26.3945 10.1367 26.3008 10.7695 26.1133C11.4023 25.9258 11.9258 25.6094 12.3398 25.1641V21.332H8.39062V19.5039H14.5781V25.7617ZM27.9844 20.1133H20.5898V26.1602H29.1797V28H18.3398V10.9375H29.0625V12.7891H20.5898V18.2734H27.9844V20.1133ZM44.0039 12.7891H38.5195V28H36.2812V12.7891H30.8086V10.9375H44.0039V12.7891Z" fill="url(#paint0_linear)"/>
<path d="M48.8672 18.5664L58.0371 22.2725V25.1436L46.0547 19.5918V17.4531L58.0371 11.916V14.7871L48.8672 18.5664ZM62.7393 28V6.67188H68.7598C70.6152 6.67188 72.2559 7.08203 73.6816 7.90234C75.1074 8.72266 76.2061 9.88965 76.9775 11.4033C77.7588 12.917 78.1543 14.6553 78.1641 16.6182V17.9805C78.1641 19.9922 77.7734 21.7549 76.9922 23.2686C76.2207 24.7822 75.1123 25.9443 73.667 26.7549C72.2314 27.5654 70.5566 27.9805 68.6426 28H62.7393ZM65.5518 8.98633V25.7002H68.5107C70.6787 25.7002 72.3633 25.0264 73.5645 23.6787C74.7754 22.3311 75.3809 20.4121 75.3809 17.9219V16.6768C75.3809 14.2549 74.8096 12.375 73.667 11.0371C72.5342 9.68945 70.9229 9.00586 68.833 8.98633H65.5518ZM94.4824 18.1416H85.2393V25.7002H95.9766V28H82.4268V6.67188H95.8301V8.98633H85.2393V15.8418H94.4824V18.1416ZM106.538 24.2646L112.632 6.67188H115.708L107.798 28H105.308L97.4121 6.67188H100.474L106.538 24.2646ZM127.749 18.4785L118.066 14.6846V11.9014L130.576 17.4385V19.5771L118.066 25.1289V22.3164L127.749 18.4785Z" fill="#CDEDFF"/>
<defs>
<linearGradient id="paint0_linear" x1="45" y1="6" x2="-1.39077e-08" y2="34" gradientUnits="userSpaceOnUse">
<stop stop-color="#020059"/>
<stop offset="1" stop-color="#0500FF" stop-opacity="0.35"/>
</linearGradient>
</defs>
</svg>
